<?xml version="1.0" encoding="utf-8"?>
<!-- Generator: Adobe Illustrator 16.2.0, SVG Export Plug-In . SVG Version: 6.00 Build 0)  -->
<!DOCTYPE svg PUBLIC "-//W3C//DTD SVG 1.1//EN" "http://www.w3.org/Graphics/SVG/1.1/DTD/svg11.dtd">
<svg version="1.1" id="Слой_2" xmlns="http://www.w3.org/2000/svg" xmlns:xlink="http://www.w3.org/1999/xlink" x="0px" y="0px"
	 width="150px" height="150px" viewBox="0 0 150 150" enable-background="new 0 0 150 150" xml:space="preserve">
<g id="_x35_0_x25_">
	<circle fill="none" stroke="#00B2CA" stroke-width="1.8" stroke-miterlimit="10" cx="75" cy="75" r="28.03"/>
	<g>
		<path fill="none" stroke="#00B2CA" stroke-miterlimit="10" d="M70.523,85.518c0,0.93-0.139,1.771-0.416,2.529
			c-0.278,0.756-0.669,1.402-1.174,1.938c-0.504,0.537-1.109,0.949-1.814,1.242c-0.706,0.291-1.482,0.438-2.333,0.438
			c-0.85,0-1.626-0.146-2.329-0.438c-0.702-0.293-1.306-0.707-1.811-1.242s-0.896-1.182-1.173-1.938
			c-0.278-0.756-0.417-1.6-0.417-2.529c0-0.922,0.139-1.764,0.417-2.52c0.277-0.758,0.668-1.402,1.173-1.938
			c0.504-0.537,1.108-0.951,1.811-1.246c0.703-0.295,1.479-0.443,2.329-0.443c0.851,0,1.627,0.146,2.333,0.439
			c0.705,0.291,1.312,0.707,1.814,1.244c0.505,0.539,0.896,1.186,1.174,1.941C70.384,83.756,70.523,84.596,70.523,85.518z
			 M69.624,85.518c0-0.838-0.117-1.592-0.351-2.26c-0.231-0.67-0.561-1.236-0.985-1.701c-0.425-0.463-0.935-0.82-1.529-1.066
			c-0.596-0.248-1.252-0.371-1.973-0.371c-0.714,0-1.368,0.123-1.964,0.371c-0.595,0.246-1.105,0.604-1.534,1.066
			c-0.428,0.465-0.759,1.031-0.993,1.701c-0.235,0.668-0.354,1.422-0.354,2.26c0,0.846,0.118,1.6,0.354,2.266
			c0.234,0.666,0.565,1.23,0.993,1.695c0.429,0.465,0.939,0.82,1.534,1.063c0.596,0.244,1.25,0.367,1.964,0.367
			c0.72,0,1.377-0.123,1.973-0.367c0.595-0.242,1.104-0.598,1.529-1.063c0.426-0.463,0.754-1.029,0.985-1.695
			C69.505,87.117,69.624,86.363,69.624,85.518z"/>
		<path fill="none" stroke="#00B2CA" stroke-miterlimit="10" d="M80.502,79.51v0.721h-6.333v5.059h5.481v0.723h-5.481v5.525h-0.876
			V79.51H80.502L80.502,79.51z"/>
		<path fill="none" stroke="#00B2CA" stroke-miterlimit="10" d="M90.098,79.51v0.721h-6.332v5.059h5.48v0.723h-5.48v5.525h-0.875
			V79.51H90.098L90.098,79.51z"/>
	</g>
	<g>
		<path fill="none" stroke="#00B2CA" stroke-miterlimit="10" d="M66.572,62.523c0,0.114-0.038,0.208-0.114,0.285
			c-0.076,0.076-0.197,0.115-0.361,0.115h-4.353l-0.723,4.012c0.379-0.097,0.74-0.166,1.08-0.208s0.663-0.064,0.969-0.064
			c0.629,0,1.183,0.089,1.658,0.269c0.476,0.179,0.874,0.428,1.194,0.748c0.319,0.319,0.561,0.701,0.722,1.144
			c0.162,0.442,0.243,0.923,0.243,1.445c0,0.635-0.109,1.203-0.328,1.704s-0.518,0.928-0.896,1.278
			c-0.38,0.353-0.821,0.621-1.325,0.809c-0.505,0.187-1.04,0.281-1.606,0.281c-0.329,0-0.645-0.03-0.948-0.09
			c-0.303-0.059-0.586-0.139-0.85-0.237c-0.263-0.1-0.507-0.214-0.731-0.345c-0.224-0.13-0.42-0.263-0.591-0.398l0.247-0.332
			c0.051-0.085,0.13-0.127,0.238-0.127c0.072,0,0.18,0.042,0.317,0.127c0.14,0.085,0.317,0.179,0.536,0.281
			c0.219,0.102,0.479,0.194,0.778,0.279s0.649,0.127,1.045,0.127c0.465,0,0.898-0.074,1.301-0.225s0.75-0.367,1.045-0.65
			c0.294-0.282,0.525-0.633,0.692-1.05s0.251-0.888,0.251-1.415c0-0.431-0.064-0.827-0.191-1.189
			c-0.127-0.363-0.319-0.673-0.577-0.932c-0.259-0.258-0.584-0.459-0.979-0.604c-0.394-0.146-0.857-0.217-1.39-0.217
			c-0.323,0-0.666,0.024-1.028,0.075c-0.363,0.052-0.748,0.134-1.156,0.247l-0.519-0.161l0.935-5.329h5.414L66.572,62.523
			L66.572,62.523z"/>
		<path fill="none" stroke="#00B2CA" stroke-miterlimit="10" d="M77.494,68.184c0,1.054-0.113,1.966-0.34,2.736
			c-0.227,0.771-0.535,1.408-0.926,1.912c-0.391,0.504-0.849,0.88-1.374,1.126c-0.523,0.247-1.084,0.37-1.679,0.37
			c-0.596,0-1.153-0.123-1.676-0.37c-0.521-0.247-0.977-0.622-1.367-1.126c-0.393-0.504-0.698-1.142-0.923-1.912
			c-0.224-0.771-0.335-1.683-0.335-2.736s0.111-1.966,0.335-2.737c0.225-0.771,0.53-1.408,0.923-1.913
			c0.392-0.505,0.847-0.88,1.367-1.126c0.521-0.246,1.08-0.37,1.676-0.37c0.595,0,1.154,0.124,1.679,0.37
			c0.524,0.247,0.982,0.622,1.374,1.126c0.391,0.504,0.699,1.143,0.926,1.913C77.381,66.218,77.494,67.13,77.494,68.184z
			 M76.645,68.184c0-0.976-0.094-1.809-0.281-2.499c-0.186-0.691-0.437-1.256-0.751-1.696c-0.313-0.438-0.683-0.761-1.104-0.965
			c-0.423-0.204-0.866-0.306-1.331-0.306c-0.464,0-0.907,0.102-1.325,0.306c-0.42,0.204-0.789,0.526-1.105,0.965
			c-0.317,0.439-0.569,1.004-0.757,1.696c-0.187,0.691-0.28,1.523-0.28,2.499c0,0.979,0.095,1.814,0.28,2.503
			c0.187,0.688,0.438,1.252,0.757,1.69c0.316,0.439,0.687,0.76,1.105,0.96c0.418,0.201,0.861,0.303,1.325,0.303
			c0.465,0,0.908-0.102,1.331-0.303c0.422-0.2,0.79-0.521,1.104-0.96c0.314-0.438,0.566-1.003,0.751-1.69
			C76.551,69.999,76.645,69.165,76.645,68.184z"/>
		<path fill="none" stroke="#00B2CA" stroke-miterlimit="10" d="M84.023,65.065c0,0.493-0.068,0.928-0.205,1.305
			c-0.137,0.376-0.32,0.69-0.553,0.939c-0.232,0.25-0.502,0.438-0.809,0.564s-0.629,0.191-0.969,0.191
			c-0.352,0-0.682-0.063-0.99-0.191c-0.309-0.127-0.576-0.315-0.803-0.564s-0.406-0.563-0.537-0.939
			c-0.129-0.377-0.193-0.812-0.193-1.305c0-0.499,0.064-0.938,0.193-1.317c0.131-0.379,0.311-0.694,0.537-0.947
			c0.227-0.252,0.494-0.442,0.803-0.569c0.311-0.127,0.641-0.191,0.99-0.191c0.352,0,0.682,0.064,0.986,0.191
			s0.572,0.317,0.803,0.569s0.41,0.567,0.543,0.947C83.955,64.126,84.023,64.566,84.023,65.065z M83.377,65.065
			c0-0.437-0.051-0.81-0.148-1.122c-0.1-0.313-0.236-0.568-0.408-0.77c-0.174-0.201-0.375-0.35-0.604-0.442
			c-0.23-0.094-0.475-0.14-0.729-0.14c-0.256,0-0.496,0.046-0.723,0.14c-0.227,0.093-0.426,0.241-0.596,0.442
			c-0.17,0.2-0.305,0.458-0.402,0.77c-0.1,0.313-0.15,0.686-0.15,1.122s0.053,0.809,0.15,1.118c0.098,0.309,0.232,0.562,0.402,0.761
			c0.17,0.198,0.369,0.344,0.596,0.438c0.227,0.094,0.467,0.14,0.723,0.14c0.254,0,0.496-0.046,0.729-0.14
			c0.229-0.094,0.43-0.239,0.604-0.438c0.172-0.199,0.309-0.452,0.408-0.761C83.326,65.874,83.377,65.5,83.377,65.065z
			 M88.588,62.328c0.031-0.045,0.072-0.082,0.123-0.109c0.047-0.028,0.109-0.042,0.189-0.042h0.568l-8.635,11.875
			c-0.074,0.102-0.174,0.152-0.299,0.152h-0.578L88.588,62.328z M90.516,71.346c0,0.493-0.066,0.928-0.203,1.305
			s-0.318,0.69-0.549,0.939c-0.229,0.249-0.496,0.438-0.803,0.564s-0.631,0.191-0.971,0.191c-0.352,0-0.682-0.064-0.988-0.191
			c-0.309-0.127-0.576-0.315-0.805-0.564c-0.227-0.25-0.404-0.563-0.535-0.939s-0.195-0.812-0.195-1.305
			c0-0.499,0.064-0.938,0.195-1.317c0.131-0.38,0.311-0.696,0.535-0.948c0.229-0.252,0.494-0.441,0.805-0.569
			c0.309-0.128,0.639-0.191,0.988-0.191c0.352,0,0.682,0.063,0.986,0.191c0.307,0.127,0.574,0.316,0.803,0.569
			c0.23,0.252,0.41,0.568,0.541,0.948C90.451,70.408,90.516,70.848,90.516,71.346z M89.871,71.346c0-0.438-0.051-0.813-0.148-1.126
			c-0.1-0.314-0.234-0.572-0.404-0.773s-0.369-0.349-0.6-0.441c-0.23-0.094-0.473-0.141-0.727-0.141
			c-0.256,0-0.498,0.047-0.727,0.141c-0.23,0.093-0.43,0.24-0.6,0.441c-0.172,0.201-0.307,0.459-0.404,0.773
			c-0.1,0.313-0.148,0.689-0.148,1.126c0,0.436,0.049,0.809,0.148,1.118c0.1,0.309,0.232,0.563,0.404,0.761
			c0.17,0.198,0.369,0.343,0.6,0.434c0.229,0.091,0.471,0.136,0.727,0.136c0.254,0,0.496-0.045,0.727-0.136s0.43-0.234,0.6-0.434
			s0.305-0.452,0.404-0.761C89.82,72.155,89.871,71.783,89.871,71.346z"/>
	</g>
</g>
</svg>
