<?xml version="1.0" encoding="utf-8"?>
<!-- Generator: Adobe Illustrator 16.2.0, SVG Export Plug-In . SVG Version: 6.00 Build 0)  -->
<!DOCTYPE svg PUBLIC "-//W3C//DTD SVG 1.1//EN" "http://www.w3.org/Graphics/SVG/1.1/DTD/svg11.dtd">
<svg version="1.1" id="Слой_1" xmlns="http://www.w3.org/2000/svg" xmlns:xlink="http://www.w3.org/1999/xlink" x="0px" y="0px"
	 width="150px" height="150px" viewBox="0 0 150 150" enable-background="new 0 0 150 150" xml:space="preserve">
<g id="Слой_3">
	<g id="application_scoring">
		<g id="circle_1_">
			
				<circle fill="none" stroke="#FFFFFF" stroke-width="0.5" stroke-miterlimit="10" stroke-dasharray="1.0033,1.0033" cx="75" cy="75" r="46"/>
		</g>
		<g id="Слой_15">
			<g>
				<g>
					<path fill="#00B2CA" stroke="#414042" stroke-width="0.5" stroke-miterlimit="10" d="M81.779,77.466
						c0-4.183-3.123-7.643-7.157-8.188V49.269h-2.245v20.008c-4.033,0.549-7.155,4.009-7.155,8.188c0,4.188,3.122,7.646,7.155,8.193
						v16.729h2.245V85.66C78.656,85.109,81.779,81.648,81.779,77.466z M73.5,83.5c-3.326,0-6.033-2.707-6.033-6.034
						c0-3.327,2.707-6.032,6.033-6.032s6.033,2.705,6.033,6.032C79.533,80.793,76.826,83.5,73.5,83.5z"/>
					<path fill="#00B2CA" stroke="#414042" stroke-width="0.5" stroke-miterlimit="10" d="M98.09,87.568
						c0-4.187-3.121-7.646-7.156-8.192V49.269h-2.24v30.107c-4.032,0.551-7.155,4.011-7.155,8.192c0,4.184,3.123,7.643,7.155,8.189
						v6.626h2.24v-6.626C94.969,95.211,98.09,91.751,98.09,87.568z M89.811,93.602c-3.322,0-6.026-2.703-6.026-6.028
						c0-3.327,2.704-6.033,6.026-6.033c3.328,0,6.035,2.706,6.035,6.033C95.844,90.896,93.139,93.602,89.811,93.602z"/>
					<path fill="#00B2CA" stroke="#414042" stroke-width="0.5" stroke-miterlimit="10" d="M67.467,62.875
						c0-4.184-3.121-7.643-7.156-8.192V49.27H58.07v5.413c-4.035,0.553-7.156,4.012-7.156,8.192s3.122,7.643,7.156,8.193v31.317
						h2.241V71.068C64.346,70.518,67.467,67.059,67.467,62.875z M59.188,68.908c-3.326,0-6.032-2.706-6.032-6.033
						s2.706-6.033,6.032-6.033c3.324,0,6.03,2.707,6.03,6.033C65.222,66.202,62.516,68.908,59.188,68.908z"/>
				</g>
			</g>
		</g>
	</g>
</g>
</svg>
