<?xml version="1.0" encoding="utf-8"?>
<!-- Generator: Adobe Illustrator 16.2.0, SVG Export Plug-In . SVG Version: 6.00 Build 0)  -->
<!DOCTYPE svg PUBLIC "-//W3C//DTD SVG 1.1//EN" "http://www.w3.org/Graphics/SVG/1.1/DTD/svg11.dtd">
<svg version="1.1" id="Слой_1" xmlns="http://www.w3.org/2000/svg" xmlns:xlink="http://www.w3.org/1999/xlink" x="0px" y="0px"
	 width="150px" height="150px" viewBox="0 0 150 150" enable-background="new 0 0 150 150" xml:space="preserve">
<g id="Слой_4">
	<g id="cascade_pool">
		<g id="circle_1_">
			
				<circle fill="none" stroke="#FFFFFF" stroke-width="0.5" stroke-miterlimit="10" stroke-dasharray="1.0033,1.0033" cx="75" cy="75" r="46"/>
		</g>
		<g id="Слой_16">
			<g>
				<path fill="#00B2CA" d="M101.141,84.193H79.387c-0.707,0-1.281,0.576-1.281,1.283v4.848H71.96v-7.688h14.104
					c0.705,0,1.283-0.575,1.283-1.282V68.157c0-0.707-0.578-1.28-1.283-1.28H64.311c-0.708,0-1.283,0.573-1.283,1.28v5.352h-5.885
					v-7.69h12.322c0.708,0,1.284-0.576,1.284-1.284V51.34c0-0.707-0.576-1.282-1.284-1.282H47.712c-0.706,0-1.283,0.575-1.283,1.282
					v13.19c0,0.709,0.577,1.284,1.283,1.284h8.082v9.04h7.234v6.498c0,0.707,0.575,1.283,1.283,1.283h6.298v9.041h7.497v6.997
					c0,0.707,0.574,1.279,1.281,1.279h21.754c0.707,0,1.282-0.572,1.282-1.279V85.479C102.422,84.77,101.848,84.193,101.141,84.193z
					 M47.712,64.563c-0.02,0-0.036-0.017-0.036-0.036V51.336c0-0.021,0.015-0.034,0.036-0.034h21.753
					c0.02,0,0.036,0.015,0.036,0.034v13.191c0,0.021-0.018,0.035-0.036,0.035L47.712,64.563L47.712,64.563z M64.312,81.386
					c-0.02,0-0.036-0.021-0.036-0.038v-6.497V73.5v-5.349c0-0.021,0.017-0.036,0.036-0.036h21.752c0.021,0,0.035,0.019,0.035,0.036
					v13.193c0,0.02-0.016,0.038-0.035,0.038L64.312,81.386L64.312,81.386z M101.178,98.669c0,0.021-0.016,0.034-0.037,0.034H79.389
					c-0.021,0-0.037-0.016-0.037-0.034V85.477c0-0.021,0.017-0.035,0.037-0.035h21.752c0.021,0,0.037,0.017,0.037,0.035V98.669z"/>
			</g>
		</g>
	</g>
</g>
</svg>
