<?xml version="1.0" encoding="utf-8"?>
<!-- Generator: Adobe Illustrator 16.2.0, SVG Export Plug-In . SVG Version: 6.00 Build 0)  -->
<!DOCTYPE svg PUBLIC "-//W3C//DTD SVG 1.1//EN" "http://www.w3.org/Graphics/SVG/1.1/DTD/svg11.dtd">
<svg version="1.1" id="Слой_2" xmlns="http://www.w3.org/2000/svg" xmlns:xlink="http://www.w3.org/1999/xlink" x="0px" y="0px"
	 width="150px" height="150px" viewBox="0 0 150 150" enable-background="new 0 0 150 150" xml:space="preserve">
<g id="timer">
	<g>
		<path fill="#00B2CA" d="M76.632,82.98c1.04-0.08,1.987-0.611,2.604-1.457l9.352-12.929c0.287-0.396,0.244-0.944-0.103-1.292
			c-0.35-0.346-0.896-0.389-1.292-0.104L74.26,76.553c-0.842,0.613-1.372,1.563-1.453,2.602c-0.081,1.041,0.296,2.059,1.031,2.795
			c0.671,0.672,1.574,1.041,2.514,1.041C76.445,82.99,76.537,82.988,76.632,82.98z M74.798,79.311
			c0.035-0.457,0.27-0.873,0.637-1.141l7.889-5.708l-5.705,7.887c-0.271,0.371-0.687,0.604-1.143,0.639
			c-0.455,0.029-0.9-0.127-1.226-0.451C74.929,80.213,74.762,79.766,74.798,79.311z"/>
		<path fill="#00B2CA" d="M99.006,64.578c-0.011-0.021-0.011-0.043-0.021-0.064c-0.013-0.02-0.031-0.031-0.043-0.051
			c-1.012-1.73-2.205-3.342-3.563-4.803l2.146-2.146l1.411,1.412l4.236-4.238l-4.236-4.235l-4.237,4.235l1.414,1.414l-2.146,2.146
			c-1.46-1.356-3.069-2.553-4.803-3.563c-0.021-0.013-0.03-0.032-0.049-0.044c-0.022-0.012-0.044-0.012-0.065-0.021
			c-3.089-1.781-6.56-2.968-10.261-3.4v-1.189h1.498c1.378,0,2.498-1.119,2.498-2.496c0-1.379-1.121-2.497-2.498-2.497h-8.99
			c-1.377,0-2.497,1.118-2.497,2.497c0,1.377,1.12,2.496,2.497,2.496h1.498v1.154c-1.078,0.115-2.154,0.291-3.219,0.534
			c-0.538,0.123-0.875,0.659-0.751,1.196c0.123,0.537,0.659,0.875,1.197,0.751c0.919-0.212,1.847-0.37,2.775-0.479l1.071-0.082
			c0.328-0.024,0.63-0.043,0.923-0.057v1.975c0,0.552,0.446,0.998,0.998,0.998c0.554,0,1-0.446,1-0.998v-1.969
			c3.757,0.174,7.296,1.182,10.443,2.842l-0.984,1.705c-0.275,0.479-0.112,1.089,0.364,1.364c0.157,0.091,0.329,0.134,0.499,0.134
			c0.346,0,0.682-0.178,0.866-0.499l0.98-1.7c3.125,1.981,5.781,4.638,7.764,7.763l-1.7,0.981c-0.478,0.275-0.642,0.886-0.364,1.364
			c0.187,0.32,0.521,0.499,0.866,0.499c0.17,0,0.342-0.042,0.498-0.133l1.706-0.985c1.683,3.192,2.693,6.79,2.845,10.606H98.6
			c-0.553,0-0.999,0.445-0.999,0.998s0.446,1,0.999,1h1.974c-0.15,3.816-1.162,7.414-2.845,10.605l-1.706-0.984
			c-0.479-0.275-1.088-0.113-1.364,0.365c-0.275,0.479-0.111,1.088,0.366,1.363l1.701,0.98c-1.983,3.125-4.639,5.781-7.765,7.766
			l-0.98-1.701c-0.276-0.48-0.89-0.643-1.364-0.365c-0.479,0.275-0.644,0.887-0.366,1.363l0.985,1.705
			c-3.146,1.66-6.688,2.67-10.443,2.842v-1.965c0-0.553-0.447-1-0.999-1s-0.999,0.447-0.999,1v1.973
			c-1.595-0.055-3.195-0.254-4.77-0.617c-0.538-0.127-1.074,0.215-1.197,0.75c-0.124,0.539,0.213,1.074,0.75,1.197
			c1.994,0.461,4.03,0.691,6.051,0.691c0.049,0,0.096-0.004,0.146-0.004c0.008,0,0.013,0.004,0.018,0.004
			c0.01,0,0.016-0.004,0.023-0.004c4.801-0.033,9.307-1.33,13.202-3.57c0.031-0.014,0.064-0.021,0.095-0.037
			c0.021-0.014,0.031-0.031,0.051-0.045c4.034-2.352,7.404-5.719,9.762-9.75c0.02-0.025,0.043-0.047,0.062-0.078
			c0.011-0.021,0.01-0.041,0.021-0.063c2.28-3.955,3.593-8.535,3.593-13.42C102.599,73.11,101.285,68.533,99.006,64.578z
			 M98.937,53.277l1.412,1.412l-1.412,1.414l-1.412-1.414L98.937,53.277z M74.793,51.05v-3.018h-3.496
			c-0.273,0-0.498-0.226-0.498-0.499c0-0.274,0.225-0.5,0.498-0.5h8.99c0.274,0,0.498,0.226,0.498,0.5
			c0,0.273-0.224,0.499-0.498,0.499h-3.496v3.018c-0.348-0.015-0.68-0.021-1-0.021c-0.027,0-0.059,0.003-0.087,0.003
			c-0.024,0-0.05-0.003-0.075-0.003c-0.164,0-0.328,0.013-0.491,0.015C75.021,51.046,74.914,51.045,74.793,51.05z"/>
		<path fill="#00B2CA" d="M66.803,59.02h-4.994c-0.552,0-0.999,0.446-0.999,0.999s0.447,0.998,0.999,0.998h4.994
			c0.554,0,0.999-0.445,0.999-0.998S67.355,59.02,66.803,59.02z"/>
		<path fill="#00B2CA" d="M66.803,66.011h-9.987c-0.553,0-0.999,0.446-0.999,0.999c0,0.552,0.445,0.999,0.999,0.999h9.987
			c0.554,0,0.999-0.447,0.999-0.999C67.802,66.458,67.355,66.011,66.803,66.011z"/>
		<path fill="#00B2CA" d="M66.803,73.003H51.821c-0.553,0-0.999,0.445-0.999,0.998S51.269,75,51.821,75h14.981
			c0.554,0,0.999-0.446,0.999-0.999S67.355,73.003,66.803,73.003z"/>
		<path fill="#00B2CA" d="M66.803,79.994H47.825c-0.552,0-0.998,0.445-0.998,1c0,0.553,0.446,0.998,0.998,0.998h18.978
			c0.554,0,0.999-0.445,0.999-0.998C67.802,80.439,67.355,79.994,66.803,79.994z"/>
		<path fill="#00B2CA" d="M66.803,86.986H53.818c-0.552,0-0.998,0.447-0.998,1c0,0.551,0.446,0.998,0.998,0.998h12.984
			c0.554,0,0.999-0.447,0.999-0.998C67.802,87.434,67.355,86.986,66.803,86.986z"/>
		<path fill="#00B2CA" d="M66.803,93.979h-6.991c-0.553,0-0.998,0.445-0.998,0.998c0,0.555,0.445,1,0.998,1h6.991
			c0.554,0,0.999-0.445,0.999-1C67.802,94.424,67.355,93.979,66.803,93.979z"/>
	</g>
</g>
</svg>
