<?xml version="1.0" encoding="utf-8"?>
<!-- Generator: Adobe Illustrator 16.2.0, SVG Export Plug-In . SVG Version: 6.00 Build 0)  -->
<!DOCTYPE svg PUBLIC "-//W3C//DTD SVG 1.1//EN" "http://www.w3.org/Graphics/SVG/1.1/DTD/svg11.dtd">
<svg version="1.1" id="Слой_1" xmlns="http://www.w3.org/2000/svg" xmlns:xlink="http://www.w3.org/1999/xlink" x="0px" y="0px"
	 width="150px" height="150px" viewBox="0 0 150 150" enable-background="new 0 0 150 150" xml:space="preserve">
<g id="Слой_4">
	<g id="expert_voting">
		<g id="circle_5_">
			
				<circle fill="none" stroke="#FFFFFF" stroke-width="0.5" stroke-miterlimit="10" stroke-dasharray="1.0033,1.0033" cx="75" cy="75" r="46"/>
		</g>
		<g id="Слой_9">
			<g>
				<path fill="#00B2CA" d="M93.416,81.93c0-0.094-0.021-0.188-0.055-0.272c-0.01-0.021-0.021-0.044-0.029-0.063
					c-0.01-0.023-0.018-0.048-0.03-0.07l-8.024-13.246c-0.146-0.24-0.405-0.388-0.688-0.388h-4.134l9.317-9.32
					c0.313-0.313,0.313-0.821,0-1.135L76.578,44.234c-0.314-0.313-0.821-0.313-1.137,0L58.127,61.549
					c-0.313,0.313-0.313,0.816,0,1.135l5.205,5.204h-0.021c-0.277,0-0.541,0.146-0.687,0.388l-8.028,13.248
					c-0.014,0.021-0.02,0.047-0.028,0.069c-0.013,0.021-0.021,0.043-0.027,0.063c-0.032,0.089-0.054,0.185-0.057,0.273
					c0,0.002-0.002,0.004-0.002,0.006v21.408c0,0.44,0.358,0.803,0.806,0.803h37.331c0.441,0,0.804-0.356,0.804-0.803V81.936
					C93.417,81.934,93.416,81.932,93.416,81.93z M76.007,45.933L88.07,57.995L71.89,74.178l-6.059-6.06l-6.007-6.007L76.007,45.933z
					 M63.763,69.49h1.175l6.389,6.392c0.072,0.07,0.163,0.134,0.262,0.175c0.1,0.041,0.203,0.063,0.307,0.063h6.941
					c0.442,0,0.804-0.355,0.804-0.803s-0.355-0.804-0.804-0.804h-5.003l5.018-5.021h5.287l7.06,11.646h-34.48L63.763,69.49z
					 M91.811,102.543H56.082V82.736h35.729V102.543L91.811,102.543z"/>
			</g>
		</g>
	</g>
</g>
</svg>
