<?xml version="1.0" encoding="utf-8"?>
<!-- Generator: Adobe Illustrator 16.2.0, SVG Export Plug-In . SVG Version: 6.00 Build 0)  -->
<!DOCTYPE svg PUBLIC "-//W3C//DTD SVG 1.1//EN" "http://www.w3.org/Graphics/SVG/1.1/DTD/svg11.dtd">
<svg version="1.1" id="Слой_1" xmlns="http://www.w3.org/2000/svg" xmlns:xlink="http://www.w3.org/1999/xlink" x="0px" y="0px"
	 width="150px" height="150px" viewBox="0 0 150 150" enable-background="new 0 0 150 150" xml:space="preserve">
<g id="Слой_3">
	<g id="facial_scoring">
		<g id="circle">
			
				<circle fill="none" stroke="#FFFFFF" stroke-width="0.5" stroke-miterlimit="10" stroke-dasharray="1.0033,1.0033" cx="75" cy="75" r="46"/>
		</g>
		<g id="Слой_10">
			<g>
				<g>
					<path fill="#00B2CA" d="M74.776,74.129c-10.484,0-19.013,8.529-19.013,19.014c0,10.483,8.529,19.017,19.013,19.017
						s19.013-8.528,19.013-19.017C93.789,82.658,85.26,74.129,74.776,74.129z M63.051,106.5l2.509-2.509l-0.867-0.867l-2.537,2.537
						c-2.887-2.91-4.773-6.813-5.107-11.144h4.081V93.29h-4.136c0-0.051-0.004-0.103-0.004-0.151c0-4.486,1.675-8.593,4.429-11.727
						l3.275,3.273l0.867-0.867l-3.304-3.305c3.217-3.188,7.642-5.167,12.52-5.167c4.877,0,9.303,1.978,12.519,5.167l-3.304,3.305
						l0.867,0.867l3.273-3.273c2.756,3.134,4.43,7.234,4.43,11.727c0,0.055-0.002,0.104-0.002,0.151h-4.139v1.228h4.082
						c-0.334,4.33-2.22,8.229-5.107,11.144l-2.537-2.537l-0.866,0.867L86.5,106.5c-3.133,2.753-7.236,4.428-11.724,4.428
						C70.287,110.928,66.185,109.253,63.051,106.5z"/>
					<rect x="74.163" y="81.948" fill="#00B2CA" width="1.227" height="11.19"/>
					<rect x="74.163" y="75.509" fill="#00B2CA" width="1.227" height="4.753"/>
				</g>
			</g>
		</g>
		<g id="Слой_11">
			<g>
				<g>
					<path fill="#00B2CA" d="M46.893,77.885c-5.648,0-10.243-4.595-10.243-10.243c0-5.646,4.595-10.24,10.243-10.24
						s10.243,4.595,10.243,10.24C57.136,73.291,52.541,77.885,46.893,77.885z M46.893,58.061c-5.284,0-9.582,4.301-9.582,9.582
						c0,5.284,4.298,9.582,9.582,9.582c5.283,0,9.582-4.298,9.582-9.582C56.475,62.359,52.176,58.061,46.893,58.061z"/>
				</g>
				<g>
					<path fill="#00B2CA" d="M53.32,74.07h-0.603c0-3.212-2.613-5.825-5.825-5.825s-5.825,2.613-5.825,5.825h-0.603
						c0-3.544,2.884-6.431,6.428-6.431S53.32,70.525,53.32,74.07z"/>
				</g>
				<g>
					<g>
						<path fill="#00B2CA" d="M43.369,66.431c-0.79,0-1.432-0.642-1.432-1.432s0.643-1.431,1.432-1.431
							c0.79,0,1.432,0.642,1.432,1.431C44.8,65.789,44.159,66.431,43.369,66.431z M43.369,64.228c-0.425,0-0.771,0.349-0.771,0.771
							s0.347,0.771,0.771,0.771c0.425,0,0.771-0.346,0.771-0.771S43.794,64.228,43.369,64.228z"/>
					</g>
					<g>
						<path fill="#00B2CA" d="M50.418,66.431c-0.79,0-1.432-0.642-1.432-1.432s0.642-1.431,1.432-1.431
							c0.789,0,1.431,0.642,1.431,1.431C51.849,65.789,51.207,66.431,50.418,66.431z M50.418,64.228
							c-0.426,0-0.771,0.349-0.771,0.771s0.346,0.771,0.771,0.771c0.424,0,0.771-0.346,0.771-0.771
							C51.188,64.574,50.842,64.228,50.418,64.228z"/>
					</g>
				</g>
			</g>
		</g>
		<g id="Слой_8">
			<g>
				<g>
					<path fill="#00B2CA" d="M75.399,67.594c-5.689,0-10.318-4.629-10.318-10.316c0-5.689,4.629-10.318,10.318-10.318
						c5.69,0,10.319,4.629,10.319,10.318C85.718,62.965,81.089,67.594,75.399,67.594z M75.399,47.623
						c-5.322,0-9.653,4.331-9.653,9.652c0,5.32,4.331,9.65,9.653,9.65s9.652-4.33,9.652-9.65
						C85.051,51.953,80.721,47.623,75.399,47.623z"/>
				</g>
				<g>
					<g>
						<path fill="#00B2CA" d="M71.849,56.055c-0.796,0-1.442-0.646-1.442-1.439s0.647-1.442,1.442-1.442s1.442,0.647,1.442,1.442
							C73.291,55.411,72.644,56.055,71.849,56.055z M71.849,53.835c-0.429,0-0.777,0.349-0.777,0.777
							c0,0.428,0.348,0.773,0.777,0.773c0.428,0,0.776-0.348,0.776-0.773C72.625,54.184,72.277,53.835,71.849,53.835z"/>
					</g>
					<g>
						<path fill="#00B2CA" d="M78.95,56.055c-0.796,0-1.442-0.646-1.442-1.439s0.646-1.442,1.442-1.442
							c0.795,0,1.442,0.647,1.442,1.442C80.393,55.411,79.745,56.055,78.95,56.055z M78.95,53.835c-0.429,0-0.777,0.349-0.777,0.777
							c0,0.428,0.349,0.773,0.777,0.773c0.428,0,0.776-0.348,0.776-0.773C79.727,54.184,79.377,53.835,78.95,53.835z"/>
					</g>
				</g>
				<g>
					<rect x="68.243" y="59.52" fill="#00B2CA" width="13.979" height="0.665"/>
				</g>
			</g>
		</g>
		<g id="Слой_7">
			<g>
				<g>
					<path fill="#00B2CA" d="M103.641,77.668c-5.646,0-10.242-4.595-10.242-10.243c0-5.646,4.596-10.243,10.242-10.243
						c5.648,0,10.243,4.598,10.243,10.243C113.884,73.074,109.29,77.668,103.641,77.668z M103.641,57.843
						c-5.283,0-9.582,4.298-9.582,9.582c0,5.284,4.299,9.582,9.582,9.582c5.284,0,9.582-4.298,9.582-9.582
						C113.223,62.141,108.925,57.843,103.641,57.843z"/>
				</g>
				<g>
					<path fill="#00B2CA" d="M103.641,74.474c-3.887,0-7.049-3.161-7.049-7.049h0.661c0,3.522,2.866,6.388,6.388,6.388
						c3.522,0,6.389-2.863,6.389-6.388h0.66C110.689,71.313,107.527,74.474,103.641,74.474z"/>
				</g>
				<g>
					<g>
						<path fill="#00B2CA" d="M100.117,66.214c-0.79,0-1.432-0.643-1.432-1.432c0-0.789,0.642-1.435,1.432-1.435
							s1.432,0.645,1.432,1.435C101.549,65.572,100.907,66.214,100.117,66.214z M100.117,64.01c-0.426,0-0.771,0.35-0.771,0.771
							c0,0.425,0.346,0.771,0.771,0.771c0.425,0,0.771-0.346,0.771-0.771C100.889,64.357,100.542,64.01,100.117,64.01z"/>
					</g>
					<g>
						<path fill="#00B2CA" d="M107.166,66.214c-0.79,0-1.432-0.643-1.432-1.432c0-0.789,0.643-1.435,1.432-1.435
							s1.432,0.645,1.432,1.435C108.598,65.572,107.956,66.214,107.166,66.214z M107.166,64.01c-0.425,0-0.771,0.35-0.771,0.771
							c0,0.425,0.348,0.771,0.771,0.771s0.771-0.346,0.771-0.771C107.938,64.357,107.59,64.01,107.166,64.01z"/>
					</g>
				</g>
			</g>
		</g>
	</g>
</g>
</svg>
