<?xml version="1.0" encoding="utf-8"?>
<!-- Generator: Adobe Illustrator 16.2.0, SVG Export Plug-In . SVG Version: 6.00 Build 0)  -->
<!DOCTYPE svg PUBLIC "-//W3C//DTD SVG 1.1//EN" "http://www.w3.org/Graphics/SVG/1.1/DTD/svg11.dtd">
<svg version="1.1" id="Слой_2" xmlns="http://www.w3.org/2000/svg" xmlns:xlink="http://www.w3.org/1999/xlink" x="0px" y="0px"
	 width="150px" height="150px" viewBox="0 0 150 150" enable-background="new 0 0 150 150" xml:space="preserve">
<g id="smile">
	<g>
		<g>
			<path fill="#00B2CA" stroke="#FFFFFF" stroke-width="0.5" stroke-miterlimit="10" d="M75,103.87
				c-15.92,0-28.87-12.951-28.87-28.87S59.08,46.13,75,46.13c15.918,0,28.87,12.951,28.87,28.87S90.918,103.87,75,103.87z
				 M75,47.992c-14.894,0-27.008,12.117-27.008,27.008c0,14.892,12.114,27.008,27.008,27.008c14.892,0,27.006-12.116,27.006-27.008
				S89.892,47.992,75,47.992z"/>
		</g>
		<g>
			<path fill="#00B2CA" stroke="#FFFFFF" stroke-width="0.5" stroke-miterlimit="10" d="M75,94.867
				c-10.956,0-19.868-8.912-19.868-19.868h1.863c0,9.928,8.077,18.004,18.005,18.004c9.929,0,18.005-8.076,18.005-18.004h1.864
				C94.869,85.955,85.955,94.867,75,94.867z"/>
		</g>
		<g>
			<g>
				<g>
					<path fill="#00B2CA" stroke="#FFFFFF" stroke-width="0.5" stroke-miterlimit="10" d="M61.287,72.161
						c2.059,1.877,2.809,2.062,3.126,2.064c0.009,0,0.017,0,0.027,0c0.32,0,1.039-0.183,3.074-2.027
						c1.688-1.532,3.701-3.771,3.701-5.745c0-2.827-1.622-4.448-4.449-4.448c-0.836,0-1.643,0.231-2.339,0.663
						c-0.698-0.432-1.503-0.663-2.341-0.663c-2.826,0-4.448,1.621-4.448,4.448C57.64,68.418,59.623,70.642,61.287,72.161z
						 M62.088,64.093c0.606,0,1.184,0.23,1.621,0.646c0.404,0.381,1.035,0.381,1.438,0c0.439-0.417,1.016-0.646,1.62-0.646
						c1.678,0,2.36,0.684,2.36,2.36c0,1.624-3.435,4.736-4.703,5.568c-1.253-0.822-4.696-3.96-4.696-5.568
						C59.729,64.776,60.411,64.093,62.088,64.093z"/>
					<path fill="#00B2CA" stroke="#FFFFFF" stroke-width="0.5" stroke-miterlimit="10" d="M83.22,72.161
						c2.059,1.877,2.809,2.062,3.126,2.064c0.008,0,0.019,0,0.027,0c0.321,0,1.04-0.183,3.075-2.027
						c1.688-1.532,3.699-3.771,3.699-5.745c0-2.827-1.621-4.448-4.447-4.448c-0.837,0-1.646,0.231-2.341,0.663
						c-0.696-0.432-1.504-0.663-2.341-0.663c-2.826,0-4.447,1.621-4.447,4.448C79.572,68.418,81.555,70.642,83.22,72.161z
						 M84.02,64.093c0.607,0,1.184,0.23,1.622,0.646c0.404,0.381,1.033,0.381,1.438,0c0.438-0.417,1.015-0.646,1.621-0.646
						c1.676,0,2.358,0.684,2.358,2.36c0,1.624-3.434,4.736-4.703,5.568c-1.252-0.822-4.696-3.96-4.696-5.568
						C81.659,64.776,82.344,64.093,84.02,64.093z"/>
				</g>
			</g>
		</g>
	</g>
</g>
</svg>
