<?xml version="1.0" encoding="utf-8"?>
<!-- Generator: Adobe Illustrator 16.2.0, SVG Export Plug-In . SVG Version: 6.00 Build 0)  -->
<!DOCTYPE svg PUBLIC "-//W3C//DTD SVG 1.1//EN" "http://www.w3.org/Graphics/SVG/1.1/DTD/svg11.dtd">
<svg version="1.1" id="Слой_2" xmlns="http://www.w3.org/2000/svg" xmlns:xlink="http://www.w3.org/1999/xlink" x="0px" y="0px"
	 width="150px" height="150px" viewBox="0 0 150 150" enable-background="new 0 0 150 150" xml:space="preserve">
<g id="reload">
	<g>
		<g>
			<path fill="#00B2CA" stroke="#00B2CA" stroke-width="0.5" stroke-miterlimit="10" d="M100.265,65.913
				c-0.123-0.344-0.51-0.521-0.853-0.397s-0.521,0.51-0.397,0.851c3.328,9.281,1.116,19.425-5.764,26.472
				c-4.769,4.88-11.141,7.602-17.953,7.678c-6.814,0.077-13.252-2.5-18.12-7.27l-0.752-0.729l3.871-0.043
				c0.366,0,0.665-0.313,0.653-0.677c0-0.364-0.299-0.651-0.675-0.651l-5.476,0.065c-0.365,0-0.663,0.311-0.653,0.676l0.067,5.475
				c0,0.365,0.299,0.653,0.664,0.653c0,0,0,0,0.011,0c0.365,0,0.664-0.311,0.653-0.677l-0.044-3.869l0.752,0.729
				c5.055,4.934,11.703,7.644,18.75,7.644c0.11,0,0.21,0,0.32,0c7.167-0.076,13.87-2.952,18.881-8.074
				c3.585-3.674,6.04-8.251,7.08-13.263C102.288,75.626,101.935,70.582,100.265,65.913z"/>
		</g>
	</g>
	<g>
		<g>
			<path fill="#00B2CA" stroke="#00B2CA" stroke-width="0.5" stroke-miterlimit="10" d="M95.794,52.64
				c0-0.366-0.298-0.653-0.663-0.653c0,0,0,0-0.012,0c-0.365,0-0.663,0.31-0.652,0.675l0.044,3.872l-0.752-0.729
				c-5.133-5.013-11.902-7.732-19.07-7.646c-7.168,0.077-13.871,2.955-18.882,8.075c-3.594,3.672-6.039,8.252-7.079,13.265
				c-1.019,4.865-0.664,9.909,1.006,14.586c0.1,0.278,0.354,0.443,0.62,0.443c0.078,0,0.155-0.01,0.222-0.045
				c0.342-0.12,0.52-0.508,0.397-0.85c-3.318-9.279-1.105-19.425,5.786-26.471c4.756-4.878,11.139-7.599,17.953-7.678
				c6.813-0.087,13.252,2.5,18.118,7.27l0.752,0.729l-3.871,0.043c-0.365,0-0.664,0.31-0.653,0.675c0,0.366,0.298,0.653,0.664,0.653
				c0,0,0,0,0.011,0l5.477-0.066c0.365,0,0.664-0.311,0.651-0.676L95.794,52.64z"/>
		</g>
	</g>
</g>
</svg>
