<?xml version="1.0" encoding="utf-8"?>
<!-- Generator: Adobe Illustrator 16.2.0, SVG Export Plug-In . SVG Version: 6.00 Build 0)  -->
<!DOCTYPE svg PUBLIC "-//W3C//DTD SVG 1.1//EN" "http://www.w3.org/Graphics/SVG/1.1/DTD/svg11.dtd">
<svg version="1.1" id="Слой_1" xmlns="http://www.w3.org/2000/svg" xmlns:xlink="http://www.w3.org/1999/xlink" x="0px" y="0px"
	 width="150px" height="150px" viewBox="0 0 150 150" enable-background="new 0 0 150 150" xml:space="preserve">
<g id="Слой_3">
	<g id="tokens">
		<g id="circle_4_">
			
				<circle fill="none" stroke="#FFFFFF" stroke-width="0.5" stroke-miterlimit="10" stroke-dasharray="1.0033,1.0033" cx="75" cy="75" r="46"/>
		</g>
		<g id="Слой_17">
			<g>
				<path d="M101.5,60.488L90.467,49.479h-13.9l-5.479,5.46c-13.622-1.136-24.604,6.527-24.759,6.637
					c-0.446,0.318-0.55,0.938-0.23,1.388c0.194,0.27,0.498,0.415,0.811,0.415c0.2,0,0.398-0.063,0.576-0.188
					c0.137-0.097,9.641-6.727,21.721-6.37L51.46,74.509l0.008,0.007L45.5,80.464l24.962,25.017l9.966-9.939
					c2.047,1.072,4.432,1.602,6.783,1.602c3.477,0,6.885-1.131,9.035-3.279c7.313-7.313,4.41-15.338,3.417-17.504l1.836-1.831
					L101.5,60.488L101.5,60.488z M89.646,51.465l9.867,9.846V73.7L80.119,93.031c-4.055-2.904-5.288-8.357-3.467-15.512
					c0.135-0.53-0.188-1.072-0.719-1.205c-0.532-0.144-1.068,0.185-1.206,0.715c-2.569,10.093,0.883,15.068,3.971,17.42
					l-2.276,2.271l-22.15-22.197l17.553-17.505c4.167,0.476,8.564,1.853,12.947,4.632c-0.037,0.219-0.064,0.444-0.064,0.674
					c0,2.153,1.752,3.907,3.906,3.907c2.15,0,3.902-1.754,3.902-3.907c0-2.153-1.752-3.906-3.902-3.906
					c-1.206,0-2.275,0.563-2.99,1.429c-4.063-2.539-8.129-3.954-12.03-4.588l3.795-3.787L89.646,51.465L89.646,51.465z
					 M87.008,63.178c0.438,0.33,1.063,0.241,1.389-0.197c0.33-0.438,0.24-1.063-0.195-1.39c-0.311-0.229-0.615-0.436-0.922-0.646
					c0.348-0.337,0.813-0.547,1.335-0.547c1.06,0,1.922,0.861,1.922,1.923c0,1.059-0.86,1.921-1.922,1.921
					c-0.798,0-1.48-0.485-1.772-1.182C86.896,63.101,86.951,63.135,87.008,63.178z M48.307,80.468l4.562-4.547l22.159,22.204
					l-4.562,4.549L48.307,80.468z M94.843,92.455c-2.558,2.557-8.31,3.725-12.936,1.609l16.255-16.213
					C99.15,80.311,100.749,86.547,94.843,92.455z"/>
			</g>
			<g>
				<path fill="#00B2CA" stroke="#414042" stroke-width="0.459" stroke-miterlimit="10" d="M101.5,60.488L90.467,49.479h-13.9
					l-5.479,5.46c-13.622-1.136-24.604,6.527-24.759,6.637c-0.446,0.318-0.55,0.938-0.23,1.388c0.194,0.27,0.498,0.415,0.811,0.415
					c0.2,0,0.398-0.063,0.576-0.188c0.137-0.097,9.641-6.727,21.721-6.37L51.46,74.509l0.008,0.007L45.5,80.464l24.962,25.017
					l9.966-9.939c2.047,1.072,4.432,1.602,6.783,1.602c3.477,0,6.885-1.131,9.035-3.279c7.313-7.313,4.41-15.338,3.417-17.504
					l1.836-1.831L101.5,60.488L101.5,60.488z M89.646,51.465l9.867,9.846V73.7L80.119,93.031c-4.055-2.904-5.288-8.357-3.467-15.512
					c0.135-0.53-0.188-1.072-0.719-1.205c-0.532-0.144-1.068,0.185-1.206,0.715c-2.569,10.093,0.883,15.068,3.971,17.42
					l-2.276,2.271l-22.15-22.197l17.553-17.505c4.167,0.476,8.564,1.853,12.947,4.632c-0.037,0.219-0.064,0.444-0.064,0.674
					c0,2.153,1.752,3.907,3.906,3.907c2.15,0,3.902-1.754,3.902-3.907c0-2.153-1.752-3.906-3.902-3.906
					c-1.206,0-2.275,0.563-2.99,1.429c-4.063-2.539-8.129-3.954-12.03-4.588l3.795-3.787L89.646,51.465L89.646,51.465z
					 M87.008,63.178c0.438,0.33,1.063,0.241,1.389-0.197c0.33-0.438,0.24-1.063-0.195-1.39c-0.311-0.229-0.615-0.436-0.922-0.646
					c0.348-0.337,0.813-0.547,1.335-0.547c1.06,0,1.922,0.861,1.922,1.923c0,1.059-0.86,1.921-1.922,1.921
					c-0.798,0-1.48-0.485-1.772-1.182C86.896,63.101,86.951,63.135,87.008,63.178z M48.307,80.468l4.562-4.547l22.159,22.204
					l-4.562,4.549L48.307,80.468z M94.843,92.455c-2.558,2.557-8.31,3.725-12.936,1.609l16.255-16.213
					C99.15,80.311,100.749,86.547,94.843,92.455z"/>
			</g>
		</g>
	</g>
</g>
</svg>
