<?xml version="1.0" encoding="utf-8"?>
<!-- Generator: Adobe Illustrator 16.2.0, SVG Export Plug-In . SVG Version: 6.00 Build 0)  -->
<!DOCTYPE svg PUBLIC "-//W3C//DTD SVG 1.1//EN" "http://www.w3.org/Graphics/SVG/1.1/DTD/svg11.dtd">
<svg version="1.1" id="Слой_2" xmlns="http://www.w3.org/2000/svg" xmlns:xlink="http://www.w3.org/1999/xlink" x="0px" y="0px"
	 width="150px" height="150px" viewBox="0 0 150 150" enable-background="new 0 0 150 150" xml:space="preserve">
<g id="magnifier">
	<path fill="none" stroke="#00B2CA" stroke-width="1.5" stroke-miterlimit="10" d="M57.361,89.26c1.264,0.717,2.55,1.253,3.86,1.728
		V69.418h-4.862v19.273C56.693,88.881,57.024,89.068,57.361,89.26z"/>
	<path fill="none" stroke="#00B2CA" stroke-width="1.5" stroke-miterlimit="10" d="M71.229,91.528V77.225h-4.863v14.24
		C67.99,91.421,69.612,91.44,71.229,91.528z"/>
	<path fill="none" stroke="#00B2CA" stroke-width="1.5" stroke-miterlimit="10" d="M79.734,89.961
		c0.108-0.076,0.234-0.142,0.388-0.184c0.324-0.088,0.634-0.203,0.937-0.335V70.943h-4.861v20.198
		C77.379,90.762,78.56,90.367,79.734,89.961z"/>
	<g>
		<path fill="#FFFFFF" d="M104.943,104.433L87.302,86.085c4.499-4.513,7.287-10.734,7.287-17.596
			c0-13.748-11.184-24.933-24.931-24.933c-13.75,0-24.934,11.185-24.934,24.933s11.185,24.934,24.934,24.934
			c6.034,0,11.572-2.157,15.889-5.737l17.685,18.394c0.233,0.243,0.545,0.364,0.855,0.364c0.296,0,0.592-0.11,0.824-0.331
			C105.383,105.655,105.397,104.905,104.943,104.433z M69.659,91.049c-12.44,0-22.56-10.119-22.56-22.56
			c0-12.438,10.119-22.559,22.56-22.559c12.438,0,22.556,10.119,22.556,22.559C92.215,80.93,82.096,91.049,69.659,91.049z"/>
		<path fill="none" stroke="#FFFFFF" stroke-width="3" stroke-miterlimit="10" d="M104.943,104.433L87.302,86.085
			c4.499-4.513,7.287-10.734,7.287-17.596c0-13.748-11.184-24.933-24.931-24.933c-13.75,0-24.934,11.185-24.934,24.933
			s11.185,24.934,24.934,24.934c6.034,0,11.572-2.157,15.889-5.737l17.685,18.394c0.233,0.243,0.545,0.364,0.855,0.364
			c0.296,0,0.592-0.11,0.824-0.331C105.383,105.655,105.397,104.905,104.943,104.433z M69.659,91.049
			c-12.44,0-22.56-10.119-22.56-22.56c0-12.438,10.119-22.559,22.56-22.559c12.438,0,22.556,10.119,22.556,22.559
			C92.215,80.93,82.096,91.049,69.659,91.049z"/>
	</g>
	<g>
		<path fill="#00B2CA" d="M104.943,104.433L87.302,86.085c4.499-4.513,7.287-10.734,7.287-17.596
			c0-13.748-11.184-24.933-24.931-24.933c-13.75,0-24.934,11.185-24.934,24.933s11.185,24.934,24.934,24.934
			c6.034,0,11.572-2.157,15.889-5.737l17.685,18.394c0.233,0.243,0.545,0.364,0.855,0.364c0.296,0,0.592-0.11,0.824-0.331
			C105.383,105.655,105.397,104.905,104.943,104.433z M69.659,91.049c-12.44,0-22.56-10.119-22.56-22.56
			c0-12.438,10.119-22.559,22.56-22.559c12.438,0,22.556,10.119,22.556,22.559C92.215,80.93,82.096,91.049,69.659,91.049z"/>
		<path fill="none" stroke="#FFFFFF" stroke-width="0.5" stroke-miterlimit="10" d="M104.943,104.433L87.302,86.085
			c4.499-4.513,7.287-10.734,7.287-17.596c0-13.748-11.184-24.933-24.931-24.933c-13.75,0-24.934,11.185-24.934,24.933
			s11.185,24.934,24.934,24.934c6.034,0,11.572-2.157,15.889-5.737l17.685,18.394c0.233,0.243,0.545,0.364,0.855,0.364
			c0.296,0,0.592-0.11,0.824-0.331C105.383,105.655,105.397,104.905,104.943,104.433z M69.659,91.049
			c-12.44,0-22.56-10.119-22.56-22.56c0-12.438,10.119-22.559,22.56-22.559c12.438,0,22.556,10.119,22.556,22.559
			C92.215,80.93,82.096,91.049,69.659,91.049z"/>
	</g>
</g>
</svg>
