<?xml version="1.0" encoding="utf-8"?>
<!-- Generator: Adobe Illustrator 16.2.0, SVG Export Plug-In . SVG Version: 6.00 Build 0)  -->
<!DOCTYPE svg PUBLIC "-//W3C//DTD SVG 1.1//EN" "http://www.w3.org/Graphics/SVG/1.1/DTD/svg11.dtd">
<svg version="1.1" id="Слой_1" xmlns="http://www.w3.org/2000/svg" xmlns:xlink="http://www.w3.org/1999/xlink" x="0px" y="0px"
	 width="150px" height="150px" viewBox="0 0 150 150" enable-background="new 0 0 150 150" xml:space="preserve">
<g id="Слой_3">
	<g id="underwriting">
		<g id="circle_2_">
			
				<circle fill="none" stroke="#FFFFFF" stroke-width="0.5" stroke-miterlimit="10" stroke-dasharray="1.0033,1.0033" cx="75" cy="75" r="46"/>
		</g>
		<g id="Слой_14">
			<g>
				<path fill="#00B2CA" stroke="#414042" stroke-width="0.5" stroke-miterlimit="10" d="M99.059,101.971l-2.646-2.646V65.118
					l-0.485-0.485l-4.397-4.398V45.001H52.434v50.821h4.89v4.887h37.711l2.646,2.646c0.19,0.188,0.44,0.283,0.69,0.283
					s0.5-0.097,0.688-0.283C99.439,102.971,99.439,102.354,99.059,101.971z M93.076,64.546H81.752V53.223l9.773,9.773L93.076,64.546
					z M54.387,93.866V46.954h35.188v11.324l-7.906-7.906l-0.483-0.486H57.327v43.98H54.387L54.387,93.866z M59.273,98.752V95.82
					V51.84h20.521V66.5h14.663v30.87l-7.344-7.345c1.699-2.017,2.729-4.609,2.729-7.445c0-6.375-5.186-11.563-11.56-11.563
					c-6.375,0-11.563,5.188-11.563,11.563c0,6.374,5.188,11.561,11.563,11.561c2.836,0,5.433-1.029,7.443-2.729l7.347,7.344
					L59.273,98.752L59.273,98.752z M78.286,92.186c-5.297,0-9.605-4.309-9.605-9.604s4.313-9.605,9.605-9.605
					s9.604,4.312,9.604,9.605C87.893,87.876,83.582,92.186,78.286,92.186z"/>
				<path fill="#00B2CA" d="M72.59,80.184h5.864c0.54,0,0.979-0.438,0.979-0.978s-0.438-0.979-0.979-0.979H72.59
					c-0.54,0-0.978,0.438-0.978,0.979S72.05,80.184,72.59,80.184z"/>
				<path fill="#00B2CA" d="M84.318,84.092H72.589c-0.54,0-0.978,0.438-0.978,0.979s0.438,0.979,0.978,0.979h11.729
					c0.539,0,0.977-0.438,0.977-0.979S84.857,84.092,84.318,84.092z"/>
			</g>
		</g>
	</g>
</g>
</svg>
